# xmcd
#
# Track frame offsets: 
#        150
#        17985
#        36358
#        60533
#        85060
#        101510
#
# Disc length: 1703 seconds
#
# Revision: 3
# Processed by: cddbd v1.5.2PL0 Copyright (c) Steve Scherf et al.
# Submitted via: ExactAudioCopy v0.95b3
#
DISCID=4406a506,4706a506
DTITLE=Sweet Connection - True [KTR 0029-8]
DYEAR=1998
DGENRE=Pop
TTITLE0=True (Short Club Mix)
TTITLE1=True (Radio Mix)
TTITLE2=True (Club Mix)
TTITLE3=True (Extended Mix)
TTITLE4=True (Cap Radio Mix)
TTITLE5=True (Cap Maxi Mix)
EXTD=
EXTT0=
EXTT1=
EXTT2=
EXTT3=
EXTT4=
EXTT5=
PLAYORDER=
